<svg viewBox="0 0 160 50" width="160" height="50" xmlns="http://www.w3.org/2000/svg">
  <g transform="translate(6, 6)">
    <path d="M4 4 Q4 0 8 0 L30 0 Q34 0 34 4 L34 30 Q34 34 30 34 L8 34 Q4 34 4 30 Z" 
          fill="none" stroke="#2563eb" stroke-width="2"/>
    <line x1="19" y1="0" x2="19" y2="34" stroke="#60a5fa" stroke-width="0.8"/>
    <line x1="4" y1="17" x2="34" y2="17" stroke="#60a5fa" stroke-width="0.8"/>
    <g transform="translate(7, 7)">
      <rect x="0" y="0" width="5" height="5" fill="#e5e7eb" opacity="0.8"/>
      <rect x="5" y="0" width="5" height="5" fill="#3b82f6" opacity="0.3"/>
      <rect x="10" y="0" width="5" height="5" fill="#60a5fa" opacity="0.2"/>
      <rect x="15" y="0" width="5" height="5" fill="#e5e7eb" opacity="0.8"/>
      <rect x="0" y="5" width="5" height="5" fill="#60a5fa" opacity="0.2"/>
      <rect x="5" y="5" width="5" height="5" fill="#3b82f6"/>
      <rect x="10" y="5" width="5" height="5" fill="#e5e7eb" opacity="0.8"/>
      <rect x="15" y="5" width="5" height="5" fill="#60a5fa" opacity="0.3"/>
    </g>
    <g transform="translate(19, 17)">
      <circle r="2.5" fill="none" stroke="#2563eb" stroke-width="1.2"/>
      <line x1="-5" y1="0" x2="5" y2="0" stroke="#2563eb" stroke-width="0.8"/>
      <line x1="0" y1="-5" x2="0" y2="5" stroke="#2563eb" stroke-width="0.8"/>
    </g>
  </g>
  <text x="48" y="32" font-family="system-ui, -apple-system, sans-serif" font-size="20" font-weight="600" fill="#1f2937">
    Cell<tspan fill="#2563eb">Pilot</tspan>
  </text>
</svg>