<?xml version="1.0" encoding="UTF-8"?>
<svg viewBox="0 0 300 90" width="300" height="90" xmlns="http://www.w3.org/2000/svg">
  <g transform="translate(12, 12)">
    <path d="M7.5 7.5 Q7.5 0 15 0 L52.5 0 Q60 0 60 7.5 L60 52.5 Q60 60 52.5 60 L15 60 Q7.5 60 7.5 52.5 Z" 
          fill="none" stroke="#2563eb" stroke-width="3.5"/>
    <line x1="33.75" y1="0" x2="33.75" y2="60" stroke="#60a5fa" stroke-width="1.5"/>
    <line x1="7.5" y1="30" x2="60" y2="30" stroke="#60a5fa" stroke-width="1.5"/>
    <g transform="translate(12, 12)">
      <rect x="0" y="0" width="9" height="9" fill="#e5e7eb" opacity="0.8"/>
      <rect x="9" y="0" width="9" height="9" fill="#3b82f6" opacity="0.3"/>
      <rect x="18" y="0" width="9" height="9" fill="#60a5fa" opacity="0.2"/>
      <rect x="27" y="0" width="9" height="9" fill="#e5e7eb" opacity="0.8"/>
      <rect x="0" y="9" width="9" height="9" fill="#60a5fa" opacity="0.2"/>
      <rect x="9" y="9" width="9" height="9" fill="#3b82f6"/>
      <rect x="18" y="9" width="9" height="9" fill="#e5e7eb" opacity="0.8"/>
      <rect x="27" y="9" width="9" height="9" fill="#60a5fa" opacity="0.3"/>
      <rect x="0" y="18" width="9" height="9" fill="#e5e7eb" opacity="0.8"/>
      <rect x="9" y="18" width="9" height="9" fill="#60a5fa" opacity="0.2"/>
      <rect x="18" y="18" width="9" height="9" fill="#e5e7eb" opacity="0.8"/>
      <rect x="27" y="18" width="9" height="9" fill="#e5e7eb" opacity="0.8"/>
      <rect x="0" y="27" width="9" height="9" fill="#e5e7eb" opacity="0.8"/>
      <rect x="9" y="27" width="9" height="9" fill="#e5e7eb" opacity="0.8"/>
      <rect x="18" y="27" width="9" height="9" fill="#60a5fa" opacity="0.2"/>
      <rect x="27" y="27" width="9" height="9" fill="#e5e7eb" opacity="0.8"/>
    </g>
    <g transform="translate(33.75, 30)">
      <circle r="4.5" fill="none" stroke="#2563eb" stroke-width="2"/>
      <line x1="-9" y1="0" x2="9" y2="0" stroke="#2563eb" stroke-width="1.5"/>
      <line x1="0" y1="-9" x2="0" y2="9" stroke="#2563eb" stroke-width="1.5"/>
    </g>
  </g>
  <text x="90" y="57" font-family="system-ui, -apple-system, sans-serif" font-size="36" font-weight="600" fill="#1f2937">
    Cell<tspan fill="#2563eb">Pilot</tspan>
  </text>
</svg>
