<?xml version="1.0" encoding="UTF-8"?>
<svg viewBox="0 0 120 90" width="120" height="90" xmlns="http://www.w3.org/2000/svg">
  <g transform="translate(30, 5)">
    <path d="M5 5 Q5 0 10 0 L35 0 Q40 0 40 5 L40 35 Q40 40 35 40 L10 40 Q5 40 5 35 Z" 
          fill="none" stroke="#2563eb" stroke-width="2.5"/>
    <line x1="22.5" y1="0" x2="22.5" y2="40" stroke="#60a5fa" stroke-width="1"/>
    <line x1="5" y1="20" x2="40" y2="20" stroke="#60a5fa" stroke-width="1"/>
    <g transform="translate(8, 8)">
      <rect x="0" y="0" width="6" height="6" fill="#e5e7eb" opacity="0.8"/>
      <rect x="6" y="0" width="6" height="6" fill="#3b82f6" opacity="0.3"/>
      <rect x="12" y="0" width="6" height="6" fill="#60a5fa" opacity="0.2"/>
      <rect x="18" y="0" width="6" height="6" fill="#e5e7eb" opacity="0.8"/>
      <rect x="0" y="6" width="6" height="6" fill="#60a5fa" opacity="0.2"/>
      <rect x="6" y="6" width="6" height="6" fill="#3b82f6"/>
      <rect x="12" y="6" width="6" height="6" fill="#e5e7eb" opacity="0.8"/>
      <rect x="18" y="6" width="6" height="6" fill="#60a5fa" opacity="0.3"/>
      <rect x="0" y="12" width="6" height="6" fill="#e5e7eb" opacity="0.8"/>
      <rect x="6" y="12" width="6" height="6" fill="#60a5fa" opacity="0.2"/>
      <rect x="12" y="12" width="6" height="6" fill="#e5e7eb" opacity="0.8"/>
      <rect x="18" y="12" width="6" height="6" fill="#e5e7eb" opacity="0.8"/>
      <rect x="0" y="18" width="6" height="6" fill="#e5e7eb" opacity="0.8"/>
      <rect x="6" y="18" width="6" height="6" fill="#e5e7eb" opacity="0.8"/>
      <rect x="12" y="18" width="6" height="6" fill="#60a5fa" opacity="0.2"/>
      <rect x="18" y="18" width="6" height="6" fill="#e5e7eb" opacity="0.8"/>
    </g>
    <g transform="translate(22.5, 20)">
      <circle r="3" fill="none" stroke="#2563eb" stroke-width="1.5"/>
      <line x1="-6" y1="0" x2="6" y2="0" stroke="#2563eb" stroke-width="1"/>
      <line x1="0" y1="-6" x2="0" y2="6" stroke="#2563eb" stroke-width="1"/>
    </g>
  </g>
  <text x="60" y="68" font-family="system-ui, -apple-system, sans-serif" font-size="20" font-weight="600" fill="#1f2937" text-anchor="middle">
    Cell<tspan fill="#2563eb">Pilot</tspan>
  </text>
</svg>
