<?xml version="1.0" encoding="UTF-8"?>
<svg viewBox="0 0 16 16" width="16" height="16" xmlns="http://www.w3.org/2000/svg">
  <g transform="translate(1, 1)">
    <path d="M1 1 Q1 0 2 0 L12 0 Q13 0 13 1 L13 13 Q13 14 12 14 L2 14 Q1 14 1 13 Z" 
          fill="none" stroke="#2563eb" stroke-width="1"/>
    <line x1="7" y1="0" x2="7" y2="14" stroke="#60a5fa" stroke-width="0.5"/>
    <line x1="1" y1="7" x2="13" y2="7" stroke="#60a5fa" stroke-width="0.5"/>
    <g transform="translate(2, 2)">
      <rect x="0" y="0" width="2" height="2" fill="#e5e7eb" opacity="0.6"/>
      <rect x="2" y="0" width="2" height="2" fill="#3b82f6" opacity="0.3"/>
      <rect x="4" y="0" width="2" height="2" fill="#60a5fa" opacity="0.2"/>
      <rect x="0" y="2" width="2" height="2" fill="#60a5fa" opacity="0.2"/>
      <rect x="2" y="2" width="2" height="2" fill="#3b82f6"/>
      <rect x="4" y="2" width="2" height="2" fill="#e5e7eb" opacity="0.6"/>
    </g>
    <g transform="translate(7, 7)">
      <circle r="1" fill="none" stroke="#2563eb" stroke-width="0.5"/>
      <line x1="-1.5" y1="0" x2="1.5" y2="0" stroke="#2563eb" stroke-width="0.3"/>
      <line x1="0" y1="-1.5" x2="0" y2="1.5" stroke="#2563eb" stroke-width="0.3"/>
    </g>
  </g>
</svg>
