<?xml version="1.0" encoding="UTF-8"?>
<svg viewBox="0 0 32 32" width="32" height="32" xmlns="http://www.w3.org/2000/svg">
  <g transform="translate(2, 2)">
    <path d="M2 2 Q2 0 4 0 L24 0 Q26 0 26 2 L26 26 Q26 28 24 28 L4 28 Q2 28 2 26 Z" 
          fill="none" stroke="#2563eb" stroke-width="1.5"/>
    <line x1="14" y1="0" x2="14" y2="28" stroke="#60a5fa" stroke-width="0.8"/>
    <line x1="2" y1="14" x2="26" y2="14" stroke="#60a5fa" stroke-width="0.8"/>
    <g transform="translate(4, 4)">
      <rect x="0" y="0" width="4" height="4" fill="#e5e7eb" opacity="0.6"/>
      <rect x="4" y="0" width="4" height="4" fill="#3b82f6" opacity="0.3"/>
      <rect x="8" y="0" width="4" height="4" fill="#60a5fa" opacity="0.2"/>
      <rect x="12" y="0" width="4" height="4" fill="#e5e7eb" opacity="0.6"/>
      <rect x="0" y="4" width="4" height="4" fill="#60a5fa" opacity="0.2"/>
      <rect x="4" y="4" width="4" height="4" fill="#3b82f6"/>
      <rect x="8" y="4" width="4" height="4" fill="#e5e7eb" opacity="0.6"/>
      <rect x="12" y="4" width="4" height="4" fill="#60a5fa" opacity="0.3"/>
    </g>
    <g transform="translate(14, 14)">
      <circle r="2" fill="none" stroke="#2563eb" stroke-width="1"/>
      <line x1="-3" y1="0" x2="3" y2="0" stroke="#2563eb" stroke-width="0.6"/>
      <line x1="0" y1="-3" x2="0" y2="3" stroke="#2563eb" stroke-width="0.6"/>
    </g>
  </g>
</svg>
