<?xml version="1.0" encoding="UTF-8"?>
<svg viewBox="0 0 48 48" width="48" height="48" xmlns="http://www.w3.org/2000/svg">
  <!-- CellPilot Logo - 48x48 Icon for Google Sheets Sidebar -->
  <g transform="translate(3, 3)">
    <path d="M3 3 Q3 0 6 0 L36 0 Q39 0 39 3 L39 39 Q39 42 36 42 L6 42 Q3 42 3 39 Z" 
          fill="none" stroke="#2563eb" stroke-width="2"/>
    <line x1="21" y1="0" x2="21" y2="42" stroke="#60a5fa" stroke-width="0.9"/>
    <line x1="3" y1="21" x2="39" y2="21" stroke="#60a5fa" stroke-width="0.9"/>
    <g transform="translate(6, 6)">
      <rect x="0" y="0" width="6" height="6" fill="#e5e7eb" opacity="0.7"/>
      <rect x="6" y="0" width="6" height="6" fill="#3b82f6" opacity="0.3"/>
      <rect x="12" y="0" width="6" height="6" fill="#60a5fa" opacity="0.2"/>
      <rect x="18" y="0" width="6" height="6" fill="#e5e7eb" opacity="0.7"/>
      <rect x="0" y="6" width="6" height="6" fill="#60a5fa" opacity="0.2"/>
      <rect x="6" y="6" width="6" height="6" fill="#3b82f6"/>
      <rect x="12" y="6" width="6" height="6" fill="#e5e7eb" opacity="0.7"/>
      <rect x="18" y="6" width="6" height="6" fill="#60a5fa" opacity="0.3"/>
      <rect x="0" y="12" width="6" height="6" fill="#e5e7eb" opacity="0.7"/>
      <rect x="6" y="12" width="6" height="6" fill="#60a5fa" opacity="0.2"/>
      <rect x="12" y="12" width="6" height="6" fill="#e5e7eb" opacity="0.7"/>
      <rect x="18" y="12" width="6" height="6" fill="#e5e7eb" opacity="0.7"/>
    </g>
    <g transform="translate(21, 21)">
      <circle r="3" fill="none" stroke="#2563eb" stroke-width="1.3"/>
      <line x1="-5" y1="0" x2="5" y2="0" stroke="#2563eb" stroke-width="0.9"/>
      <line x1="0" y1="-5" x2="0" y2="5" stroke="#2563eb" stroke-width="0.9"/>
    </g>
  </g>
</svg>